<svg width="18" height="18" viewBox="0 0 18 18" fill="none" xmlns="http://www.w3.org/2000/svg">
<path d="M9.00148 0H8.99852C4.02877 0 0 4.02877 0 8.99851V9.00149C0 13.9712 4.02877 18 8.99852 18H9.00148C13.9712 18 18 13.9712 18 9.00149V8.99851C18 4.02877 13.9712 0 9.00148 0Z" fill="white"/>
<path d="M12.3199 5.03541C12.302 5.02353 12.2842 5.00868 12.2664 4.99382C12.2159 4.95223 12.1683 4.90767 12.1238 4.86311C11.693 4.41155 11.4999 3.72233 11.4999 3.72233C11.4019 3.47872 11.393 2.88159 11.393 2.88159H9.30154C9.30154 2.88159 9.31342 11.1047 9.31342 11.2117C9.31342 11.3186 9.27183 12.3673 8.3093 12.804C7.34676 13.2378 6.58921 12.6882 6.58624 12.6882C6.56544 12.6733 5.91484 12.195 5.86434 11.4761C5.81086 10.7453 6.05447 10.4066 6.16439 10.261C6.25648 10.1392 6.59218 9.56883 7.50124 9.52724C7.50124 9.52724 7.50124 9.52724 7.50421 9.52724C7.8102 9.50645 8.04192 9.55992 8.05381 9.56289V8.09829C8.05381 8.09829 8.05381 8.09829 8.05084 8.09829C7.99142 8.09829 8.05381 8.09829 8.05381 8.09829V7.36451C8.05381 7.36451 5.67124 6.87433 4.23337 9.25096C2.92326 11.4196 4.37894 13.6715 4.9018 14.0369C4.91963 14.0577 6.28025 15.5282 8.37168 15.0054C11.39 14.2508 11.3692 11.283 11.3692 11.283V6.95157C12.813 8.1488 14.3014 7.87846 14.3014 7.87846V5.80782C13.1962 5.891 12.3317 5.0473 12.3199 5.03244V5.03541Z" fill="#E4232A"/>
</svg>
